M48
;Layer_Color=6321
;FILE_FORMAT=2:5
INCH,LZ
;TYPE=PLATED
T1F00S00C0.01181
T2F00S00C0.02756
T3F00S00C0.04000
T4F00S00C0.04094
;TYPE=NON_PLATED
T5F00S00C0.10630
%
T01
X0344488Y020748
X0336614Y0218504
X0332677Y0228004
Y0237478
X0336614Y0240628
X034252Y0250984
X0354695Y0237795
X0348425Y0228346
X0370079Y0224803
X0367323Y0221704
X038189Y0218504
Y0228004
X0370079Y0240628
X0374016Y0250984
X0372047Y0258858
X0370472Y0206693
X0305118Y0209646
X0295276Y0199803
X027559Y021752
X0274803Y0228346
X0266535
X0255118
X0246063
X0230433Y0231299
X0225394
X022559Y025
X0212598Y0251969
X0200787
X0185039
X0169291
Y0236221
Y0220472
Y0204724
X0192913
X0246063Y0209646
X0254906Y021852
X0265748Y021063
X0259842Y0238189
X0262205Y0246063
X025689
X027559Y0238878
X0280512Y0239173
X0298228
X0309055Y025
X0295276Y0258858
T02
X0220433Y0214252
X0230433
X0240433
X0250433
X0260433
X0270433
X0280433
X0290433
Y0254252
X0280433
X0270433
X0260433
X0250433
X0240433
X0230433
X0220433
T03
X0399606Y0205906
Y0215905
Y0225905
Y0235906
Y0245905
Y0255906
T04
X0320433Y0185945
X0330433
X0340433
X0350433
X0360433
X0370433
X0380433
Y0195945
X0370433
X0360433
X0350433
X0340433
X0330433
X0320433
X0310433
Y0185945
X0300433
X0290433
X0280433
X0270433
X0260433
X0250433
X0240433
X0230433
X0220433
X0210433
X0200433
X0190433
Y0195945
X0200433
X0210433
X0220433
X0230433
X0240433
X0250433
X0260433
X0270433
X0280433
X0290433
X0300433
T05
X0399606Y0190945
X017126
M30
