G04 Layer_Color=20142*
%FSLAX25Y25*%
%MOIN*%
G70*
G01*
G75*
%ADD28R,0.03740X0.03937*%
%ADD29R,0.04528X0.04331*%
%ADD30R,0.05394X0.02594*%
%ADD31R,0.02594X0.05394*%
%ADD32C,0.06394*%
%ADD33R,0.06394X0.06394*%
%ADD34R,0.05906X0.05906*%
%ADD35C,0.05906*%
%ADD36C,0.06496*%
%ADD37R,0.06496X0.06496*%
%ADD38C,0.00394*%
%ADD39C,0.02756*%
D28*
X185630Y204724D02*
D03*
X180512D02*
D03*
D29*
X361221Y253937D02*
D03*
X355315D02*
D03*
X359252Y204724D02*
D03*
X353346D02*
D03*
D30*
X376320Y240628D02*
D03*
Y237478D02*
D03*
Y234328D02*
D03*
Y231179D02*
D03*
Y228004D02*
D03*
Y224804D02*
D03*
Y221704D02*
D03*
Y218504D02*
D03*
X342520D02*
D03*
Y221704D02*
D03*
Y224804D02*
D03*
Y228004D02*
D03*
Y231179D02*
D03*
Y234328D02*
D03*
Y237478D02*
D03*
Y240628D02*
D03*
D31*
X370520Y212704D02*
D03*
X367320D02*
D03*
X364220D02*
D03*
X361020D02*
D03*
X357845D02*
D03*
X354695D02*
D03*
X351546D02*
D03*
X348396D02*
D03*
Y246504D02*
D03*
X351546D02*
D03*
X354695D02*
D03*
X357845D02*
D03*
X361020D02*
D03*
X364220D02*
D03*
X367320D02*
D03*
X370520D02*
D03*
D32*
X399606Y205906D02*
D03*
Y215905D02*
D03*
Y225905D02*
D03*
Y235906D02*
D03*
Y245905D02*
D03*
D33*
Y255906D02*
D03*
D34*
X220433Y214252D02*
D03*
D35*
X230433D02*
D03*
X240433D02*
D03*
X250433D02*
D03*
X260433D02*
D03*
X270433D02*
D03*
X280433D02*
D03*
X290433D02*
D03*
Y254252D02*
D03*
X280433D02*
D03*
X270433D02*
D03*
X260433D02*
D03*
X250433D02*
D03*
X240433D02*
D03*
X230433D02*
D03*
X220433D02*
D03*
D36*
X380433Y185945D02*
D03*
X370433D02*
D03*
X360433D02*
D03*
X350433D02*
D03*
X340433D02*
D03*
X330433D02*
D03*
X320433D02*
D03*
X310433D02*
D03*
X300433D02*
D03*
X290433D02*
D03*
X280433D02*
D03*
X270433D02*
D03*
X260433D02*
D03*
X250433D02*
D03*
X240433D02*
D03*
X230433D02*
D03*
X220433D02*
D03*
X210433D02*
D03*
X200433D02*
D03*
X190433D02*
D03*
X380433Y195945D02*
D03*
X370433D02*
D03*
X360433D02*
D03*
X350433D02*
D03*
X340433D02*
D03*
X330433D02*
D03*
X320433D02*
D03*
X310433D02*
D03*
X300433D02*
D03*
X290433D02*
D03*
X280433D02*
D03*
X270433D02*
D03*
X260433D02*
D03*
X250433D02*
D03*
X240433D02*
D03*
X230433D02*
D03*
X220433D02*
D03*
X210433D02*
D03*
X200433D02*
D03*
D37*
X190433D02*
D03*
D38*
X399606Y190945D02*
D03*
X171260D02*
D03*
D39*
X230433Y231299D02*
D03*
X256890Y246063D02*
D03*
X262205D02*
D03*
X280512Y239173D02*
D03*
X266535Y228346D02*
D03*
X265748Y210630D02*
D03*
X298228Y239173D02*
D03*
X309055Y250000D02*
D03*
X342520Y250984D02*
D03*
X295276Y199803D02*
D03*
X305118Y209646D02*
D03*
X374016Y250984D02*
D03*
X372047Y258858D02*
D03*
X246063Y209646D02*
D03*
X254906Y218520D02*
D03*
X275590Y217520D02*
D03*
X274803Y228346D02*
D03*
X255118D02*
D03*
X246063D02*
D03*
X225394Y231299D02*
D03*
X259842Y238189D02*
D03*
X192913Y204724D02*
D03*
X212598Y251969D02*
D03*
X200787D02*
D03*
X185039D02*
D03*
X169291Y204724D02*
D03*
Y220472D02*
D03*
Y236221D02*
D03*
Y251969D02*
D03*
X295276Y258858D02*
D03*
X348425Y228346D02*
D03*
X336614Y218504D02*
D03*
X344488Y207480D02*
D03*
X354695Y237795D02*
D03*
X225590Y250000D02*
D03*
X370472Y206693D02*
D03*
X381890Y218504D02*
D03*
Y228004D02*
D03*
X367323Y221704D02*
D03*
X370079Y240628D02*
D03*
X336614D02*
D03*
X332677Y237478D02*
D03*
X275590Y238878D02*
D03*
X370079Y224803D02*
D03*
X332677Y228004D02*
D03*
M02*
