G04 Layer_Color=13813960*
%FSLAX25Y25*%
%MOIN*%
G70*
G01*
G75*
%ADD27C,0.00787*%
D27*
X393701Y203937D02*
Y207873D01*
X391733D01*
X391077Y207217D01*
Y205905D01*
X391733Y205249D01*
X393701D01*
X392389D02*
X391077Y203937D01*
X387141Y207873D02*
X389765D01*
Y203937D01*
X387141D01*
X389765Y205905D02*
X388453D01*
X383206Y207217D02*
X383861Y207873D01*
X385173D01*
X385829Y207217D01*
Y206561D01*
X385173Y205905D01*
X383861D01*
X383206Y205249D01*
Y204593D01*
X383861Y203937D01*
X385173D01*
X385829Y204593D01*
X379270Y207873D02*
X381894D01*
Y203937D01*
X379270D01*
X381894Y205905D02*
X380582D01*
X377958Y207873D02*
X375334D01*
X376646D01*
Y203937D01*
X391077Y217256D02*
X391733Y217912D01*
X393045D01*
X393701Y217256D01*
Y216600D01*
X393045Y215944D01*
X391733D01*
X391077Y215288D01*
Y214632D01*
X391733Y213976D01*
X393045D01*
X393701Y214632D01*
X387141Y217256D02*
X387797Y217912D01*
X389109D01*
X389765Y217256D01*
Y214632D01*
X389109Y213976D01*
X387797D01*
X387141Y214632D01*
X385829Y217912D02*
Y213976D01*
X383206D01*
X381894Y217912D02*
Y213976D01*
Y215288D01*
X379270Y217912D01*
X381238Y215944D01*
X379270Y213976D01*
X393701Y223917D02*
Y227853D01*
X392389Y226541D01*
X391077Y227853D01*
Y223917D01*
X389765Y227853D02*
X388453D01*
X389109D01*
Y223917D01*
X389765D01*
X388453D01*
X383861Y227197D02*
X384517Y227853D01*
X385829D01*
X386485Y227197D01*
Y226541D01*
X385829Y225885D01*
X384517D01*
X383861Y225229D01*
Y224573D01*
X384517Y223917D01*
X385829D01*
X386485Y224573D01*
X380582Y227853D02*
X381894D01*
X382550Y227197D01*
Y224573D01*
X381894Y223917D01*
X380582D01*
X379926Y224573D01*
Y227197D01*
X380582Y227853D01*
X393701Y233760D02*
Y237696D01*
X392389Y236384D01*
X391077Y237696D01*
Y233760D01*
X387797Y237696D02*
X389109D01*
X389765Y237040D01*
Y234416D01*
X389109Y233760D01*
X387797D01*
X387141Y234416D01*
Y237040D01*
X387797Y237696D01*
X383206Y237040D02*
X383861Y237696D01*
X385173D01*
X385829Y237040D01*
Y236384D01*
X385173Y235728D01*
X383861D01*
X383206Y235072D01*
Y234416D01*
X383861Y233760D01*
X385173D01*
X385829Y234416D01*
X381894Y237696D02*
X380582D01*
X381238D01*
Y233760D01*
X381894D01*
X380582D01*
X391077Y247079D02*
X391733Y247735D01*
X393045D01*
X393701Y247079D01*
Y244455D01*
X393045Y243799D01*
X391733D01*
X391077Y244455D01*
Y245767D01*
X392389D01*
X389765Y243799D02*
Y247735D01*
X387141Y243799D01*
Y247735D01*
X385829D02*
Y243799D01*
X383861D01*
X383206Y244455D01*
Y247079D01*
X383861Y247735D01*
X385829D01*
X391077Y257774D02*
X393701D01*
Y255806D01*
X392389Y256462D01*
X391733D01*
X391077Y255806D01*
Y254495D01*
X391733Y253839D01*
X393045D01*
X393701Y254495D01*
X389765Y257774D02*
Y255151D01*
X388453Y253839D01*
X387141Y255151D01*
Y257774D01*
X214567Y248031D02*
X210631D01*
Y246064D01*
X211287Y245408D01*
X212599D01*
X213255Y246064D01*
Y248031D01*
Y246720D02*
X214567Y245408D01*
X211287Y244096D02*
X210631Y243440D01*
Y242128D01*
X211287Y241472D01*
X211943D01*
X212599Y242128D01*
Y242784D01*
Y242128D01*
X213255Y241472D01*
X213911D01*
X214567Y242128D01*
Y243440D01*
X213911Y244096D01*
X208661Y248031D02*
X204726D01*
Y246064D01*
X205382Y245408D01*
X206694D01*
X207349Y246064D01*
Y248031D01*
Y246720D02*
X208661Y245408D01*
Y244096D02*
Y242784D01*
Y243440D01*
X204726D01*
X205382Y244096D01*
X196850Y248031D02*
X192915D01*
Y246064D01*
X193571Y245408D01*
X194883D01*
X195538Y246064D01*
Y248031D01*
Y246720D02*
X196850Y245408D01*
Y241472D02*
Y244096D01*
X194227Y241472D01*
X193571D01*
X192915Y242128D01*
Y243440D01*
X193571Y244096D01*
X266732Y247047D02*
X262796D01*
Y245079D01*
X263453Y244423D01*
X264764D01*
X265420Y245079D01*
Y247047D01*
Y245735D02*
X266732Y244423D01*
X262796Y240488D02*
X263453Y241800D01*
X264764Y243111D01*
X266076D01*
X266732Y242456D01*
Y241144D01*
X266076Y240488D01*
X265420D01*
X264764Y241144D01*
Y243111D01*
X274606Y229331D02*
X270671D01*
Y227363D01*
X271326Y226707D01*
X272638D01*
X273294Y227363D01*
Y229331D01*
Y228019D02*
X274606Y226707D01*
X271326Y225395D02*
X270671Y224739D01*
Y223427D01*
X271326Y222771D01*
X271983D01*
X272638Y223427D01*
X273294Y222771D01*
X273950D01*
X274606Y223427D01*
Y224739D01*
X273950Y225395D01*
X273294D01*
X272638Y224739D01*
X271983Y225395D01*
X271326D01*
X272638Y224739D02*
Y223427D01*
X254921Y229331D02*
X250986D01*
Y227363D01*
X251642Y226707D01*
X252953D01*
X253609Y227363D01*
Y229331D01*
Y228019D02*
X254921Y226707D01*
X250986Y222771D02*
Y225395D01*
X252953D01*
X252297Y224083D01*
Y223427D01*
X252953Y222771D01*
X254265D01*
X254921Y223427D01*
Y224739D01*
X254265Y225395D01*
X202756Y248031D02*
X198820D01*
Y246064D01*
X199476Y245408D01*
X200788D01*
X201444Y246064D01*
Y248031D01*
Y246720D02*
X202756Y245408D01*
X198820Y244096D02*
Y241472D01*
X199476D01*
X202100Y244096D01*
X202756D01*
X235236Y229331D02*
X231300D01*
Y227363D01*
X231956Y226707D01*
X233268D01*
X233924Y227363D01*
Y229331D01*
Y228019D02*
X235236Y226707D01*
Y223427D02*
X231300D01*
X233268Y225395D01*
Y222771D01*
M02*
