G04 Layer_Color=15132400*
%FSLAX25Y25*%
%MOIN*%
G70*
G01*
G75*
%ADD14C,0.01000*%
%ADD15C,0.01969*%
%ADD24C,0.00600*%
%ADD25C,0.00800*%
%ADD26C,0.00700*%
%ADD27C,0.00787*%
D14*
X334567Y209055D02*
Y259449D01*
X176299Y209055D02*
X334567D01*
X176299D02*
Y259449D01*
X334567D01*
D15*
X220236Y209055D02*
X220433D01*
X215433Y204252D02*
X220236Y209055D01*
X215433Y204252D02*
X225433D01*
X225236D02*
X225433D01*
X220433Y209055D02*
X225236Y204252D01*
D24*
X371720Y240404D02*
G03*
X371720Y240404I-1500J0D01*
G01*
X371247Y243104D02*
X372920Y241305D01*
Y216104D02*
Y241305D01*
X345920Y243104D02*
X371247D01*
X345920Y216104D02*
Y243104D01*
Y216104D02*
X372920D01*
D25*
X394606Y259906D02*
X395606Y260906D01*
X403606D02*
X404606Y259906D01*
X395606Y260906D02*
X403606D01*
X394606Y241905D02*
Y249905D01*
X404606Y241905D02*
Y249905D01*
Y251905D02*
Y259906D01*
X394606Y251905D02*
Y259906D01*
Y251905D02*
X395606Y250905D01*
X394606Y249905D02*
X395606Y250905D01*
X403606D02*
X404606Y251905D01*
X403606Y250905D02*
X404606Y249905D01*
X403606Y240905D02*
X404606Y241905D01*
X394606D02*
X395606Y240905D01*
X394606Y231906D02*
X395606Y230906D01*
X403606D02*
X404606Y231906D01*
X403606Y240905D02*
X404606Y239906D01*
X394606D02*
X395606Y240905D01*
X404606Y231906D02*
Y239906D01*
X394606Y231906D02*
Y239906D01*
Y221905D02*
X395606Y220905D01*
X403606D02*
X404606Y221905D01*
X403606Y230906D02*
X404606Y229906D01*
X394606D02*
X395606Y230906D01*
X404606Y221905D02*
Y229906D01*
X394606Y221905D02*
Y229906D01*
Y211906D02*
X395606Y210906D01*
X403606D02*
X404606Y211906D01*
X403606Y220905D02*
X404606Y219905D01*
X394606D02*
X395606Y220905D01*
X404606Y211906D02*
Y219905D01*
X394606Y211906D02*
Y219905D01*
X403606Y210906D02*
X404606Y209906D01*
X394606D02*
X395606Y210906D01*
X394606Y201905D02*
Y209906D01*
X404606Y201905D02*
Y209906D01*
X395606Y200905D02*
X403606D01*
X404606Y201905D01*
X394606D02*
X395606Y200905D01*
D26*
X364268Y250937D02*
Y256937D01*
X352268D02*
X364268D01*
X352268Y250937D02*
Y256937D01*
Y250937D02*
X364268D01*
X362299Y201724D02*
Y207724D01*
X350299D02*
X362299D01*
X350299Y201724D02*
Y207724D01*
Y201724D02*
X362299D01*
D27*
X388352Y258168D02*
X387040D01*
X387696D01*
Y254888D01*
X387040Y254232D01*
X386384D01*
X385728Y254888D01*
X392288Y254232D02*
X389664D01*
X392288Y256856D01*
Y257512D01*
X391632Y258168D01*
X390320D01*
X389664Y257512D01*
X179134Y256889D02*
Y252953D01*
X181102D01*
X181758Y253609D01*
Y256233D01*
X181102Y256889D01*
X179134D01*
X183070Y252953D02*
X184381D01*
X183726D01*
Y256889D01*
X183070Y256233D01*
X171915Y206692D02*
X169291D01*
Y204724D01*
X170603D01*
X169291D01*
Y202756D01*
X173227D02*
X174539D01*
X173883D01*
Y206692D01*
X173227Y206036D01*
X180119Y196521D02*
Y195210D01*
Y195865D01*
X183399D01*
X184055Y195210D01*
Y194554D01*
X183399Y193898D01*
X184055Y197833D02*
Y199145D01*
Y198489D01*
X180119D01*
X180775Y197833D01*
X346128Y255248D02*
X345472Y255904D01*
X344160D01*
X343504Y255248D01*
Y252625D01*
X344160Y251969D01*
X345472D01*
X346128Y252625D01*
X347440Y251969D02*
X348752D01*
X348096D01*
Y255904D01*
X347440Y255248D01*
X375984Y249999D02*
Y246719D01*
X376640Y246063D01*
X377952D01*
X378608Y246719D01*
Y249999D01*
X379920Y246063D02*
X381232D01*
X380576D01*
Y249999D01*
X379920Y249343D01*
X343175Y206036D02*
X342519Y206692D01*
X341207D01*
X340551Y206036D01*
Y203412D01*
X341207Y202756D01*
X342519D01*
X343175Y203412D01*
X347111Y202756D02*
X344487D01*
X347111Y205380D01*
Y206036D01*
X346455Y206692D01*
X345143D01*
X344487Y206036D01*
M02*
